<?xml version="1.0" encoding="utf-8"?>
<svg version="1.1" id="Layer_1" xmlns="http://www.w3.org/2000/svg" xmlns:xlink="http://www.w3.org/1999/xlink" x="0px" y="0px"
     viewBox="0 0 512 512" style="enable-background:new 0 0 512 512;" xml:space="preserve">
<g>
	<path d="M384,448v-42.7c0-58.9-47.7-106.7-106.7-106.7H106.7C47.7,298.7,0,346.4,0,405.3V448c0,11.8,9.6,21.3,21.3,21.3
		c11.8,0,21.3-9.6,21.3-21.3v-42.7c0.1-35.3,28.7-63.9,64-64l170.7,0c35.3,0.1,63.9,28.7,64,64V448c0,11.8,9.6,21.3,21.3,21.3
		S384,459.8,384,448z"/>
  <path d="M192,64v21.3c35.3,0.1,63.9,28.7,64,64c-0.1,35.3-28.7,63.9-64,64c-35.3-0.1-63.9-28.7-64-64c0.1-35.3,28.7-63.9,64-64V64
		V42.7c-58.9,0-106.7,47.7-106.7,106.7C85.3,208.3,133.1,256,192,256c58.9,0,106.7-47.7,106.7-106.7c0-58.9-47.7-106.7-106.7-106.7
		V64z"/>
  <path d="M512,448v-42.7c0-48.6-32.9-91.1-80-103.2c-11.4-2.9-23,3.9-26,15.3c-2.9,11.4,3.9,23,15.3,26c28.2,7.3,48,32.8,48,61.9
		V448c0,11.8,9.6,21.3,21.3,21.3S512,459.8,512,448z"/>
  <path d="M336,87.4c28.9,7.4,48.1,33.5,48.1,61.9c0,5.2-0.6,10.6-2,15.9c-5.8,22.6-23.5,40.3-46.1,46.1c-11.4,2.9-18.3,14.5-15.4,26
		c2.9,11.4,14.5,18.3,26,15.4c37.7-9.7,67.2-39.1,76.9-76.9c2.3-8.8,3.4-17.7,3.4-26.5c0-47.6-32-90.9-80.2-103.3
		c-11.4-2.9-23,4-26,15.4C317.7,72.9,324.6,84.5,336,87.4L336,87.4z"/>
</g>
</svg>
